<svg version="1.1" id="Layer_1" xmlns="http://www.w3.org/2000/svg" xmlns:xlink="http://www.w3.org/1999/xlink" x="0px" y="0px"
	 width="100%" viewBox="0 0 253 181" enable-background="new 0 0 253 181" xml:space="preserve">
<path fill="#FFFFFF" opacity="1.000000" stroke="none" 
	d="
M254.000000,60.000000 
	C254.000000,100.614639 254.000000,141.229279 254.000000,181.921967 
	C169.666733,181.921967 85.333366,181.921967 1.000000,181.921967 
	C1.000000,179.650101 1.000000,177.319794 1.468657,174.494736 
	C30.083761,174.000000 58.231537,173.836670 86.376122,174.065643 
	C101.528206,174.188904 113.710968,168.756149 122.855164,156.635590 
	C133.680634,142.286530 135.623352,122.048012 125.099373,106.787743 
	C120.512894,100.137138 114.149155,94.668076 108.345062,88.911987 
	C100.339439,80.972565 92.086197,73.283218 83.970337,65.454277 
	C82.154259,63.702404 80.468086,61.815872 78.722099,59.991337 
	C78.923370,59.607216 79.124641,59.223099 79.325905,58.838982 
	C87.179901,58.838982 95.033897,58.838982 102.739838,58.838982 
	C102.739838,55.936302 102.739838,53.663170 102.739838,50.880920 
	C90.903694,50.880920 79.317261,50.880920 67.730827,50.880920 
	C67.732765,50.514988 67.734711,50.149059 67.736656,49.783127 
	C79.452209,49.783127 91.167770,49.783127 102.733871,49.783127 
	C102.733871,43.934288 102.733871,38.662914 102.733871,33.000008 
	C100.844574,33.000008 99.216599,33.000008 97.588623,33.000008 
	C78.935326,33.000008 60.282024,32.999168 41.628727,33.000408 
	C34.138992,33.000908 30.436571,35.329269 27.782618,41.699684 
	C25.552162,47.053555 26.911869,53.499355 31.477844,57.943405 
	C35.381435,61.742767 39.577110,65.241577 43.490654,69.031265 
	C56.735207,81.856651 69.941475,94.722061 83.082329,107.653519 
	C85.051025,109.590851 88.901115,111.510796 86.322945,114.821877 
	C84.881035,116.673676 81.475739,117.846909 78.943047,117.867928 
	C52.963455,118.083427 26.981382,118.000000 1.000000,118.000000 
	C1.000000,88.645775 1.000000,59.291542 1.459875,29.468658 
	C4.852475,29.000000 7.785200,29.000000 11.161388,29.000000 
	C11.161388,24.511696 11.161388,20.540739 11.161388,15.963814 
	C13.412181,19.778536 15.259467,22.909378 17.387794,26.516542 
	C19.762310,22.496222 21.574526,19.427935 23.386742,16.359646 
	C23.678362,16.457785 23.969982,16.555923 24.261602,16.654062 
	C24.261602,20.718176 24.261602,24.782288 24.261602,28.675915 
	C27.741478,28.675915 30.817118,28.675915 34.508484,28.675915 
	C33.604778,24.619814 32.119606,21.010979 32.158974,17.418852 
	C32.219028,11.939834 33.333336,6.472370 34.000000,1.000000 
	C41.354252,1.000000 48.708500,1.000000 56.531380,1.434347 
	C60.410175,10.725569 59.103436,19.653023 56.436161,28.783978 
	C60.466503,28.783978 63.532543,28.783978 67.038177,28.783978 
	C67.038177,24.925226 67.038177,21.257582 67.038177,16.258305 
	C69.623116,21.313828 71.567337,25.116266 73.386208,28.673553 
	C77.071976,28.673553 80.482574,28.673553 84.508728,28.673553 
	C83.604622,24.616056 82.119560,21.007917 82.158974,17.416506 
	C82.219078,11.938264 83.333344,6.471588 84.000000,1.000000 
	C92.687561,1.000000 101.375130,1.000000 110.426529,1.360731 
	C111.005409,3.439602 110.843803,5.365613 111.620857,6.773585 
	C111.931717,7.336842 115.391090,7.120866 115.554146,6.634701 
	C116.135429,4.901583 115.916214,2.899978 116.000000,1.000000 
	C117.714355,1.000000 119.428719,1.000000 121.571533,1.434351 
	C125.095734,10.725944 124.672073,19.626585 121.509720,28.659275 
	C125.858200,28.659275 129.377686,28.659275 132.063507,28.659275 
	C131.700562,19.219805 131.350281,10.109902 131.000000,1.000000 
	C171.897263,1.000000 212.794510,1.000000 254.000000,1.000000 
	C254.000000,18.019653 254.000000,35.041168 253.604233,52.531364 
	C251.477646,54.132305 248.326721,55.215248 248.285370,56.406178 
	C248.166794,59.820171 251.162399,60.198860 254.000000,60.000000 
M145.000000,14.541031 
	C145.000000,12.771937 145.000000,11.002843 145.000000,9.292048 
	C141.317535,9.292048 138.231186,9.292048 135.245087,9.292048 
	C135.927490,15.221001 136.450745,20.888149 137.348709,26.495287 
	C137.503220,27.460066 139.222183,28.838816 140.268692,28.884880 
	C145.730026,29.125263 151.207581,28.997019 156.852188,28.997019 
	C155.971893,22.146917 155.149719,15.749069 154.317123,9.270126 
	C152.094360,9.270126 149.694534,9.270126 146.660492,9.270126 
	C146.660492,13.992268 146.660492,18.451834 146.660492,22.911400 
	C146.106995,22.921448 145.553497,22.931496 145.000000,22.941544 
	C145.000000,20.456646 145.000000,17.971746 145.000000,14.541031 
M205.695129,59.903343 
	C207.982681,59.903343 210.270248,59.903343 213.403625,59.903343 
	C213.403625,55.110371 213.403625,50.567104 213.403625,46.023838 
	C213.887360,46.052334 214.371078,46.080833 214.854813,46.109329 
	C214.854813,50.617592 214.854813,55.125854 214.854813,59.768681 
	C218.535324,59.768681 221.612503,59.768681 224.690598,59.768681 
	C224.100891,53.748962 223.638855,47.945847 222.850327,42.187439 
	C222.735703,41.350330 221.082336,40.140987 220.101868,40.102592 
	C214.824844,39.895966 209.535477,40.004864 204.218018,40.004864 
	C204.520187,46.751392 204.798798,52.972118 205.695129,59.903343 
M121.000008,54.174149 
	C120.618286,58.404312 122.496872,60.341564 126.778931,60.022579 
	C128.597122,59.887135 130.487152,59.719223 132.251724,60.054523 
	C136.883194,60.934601 138.505844,58.251667 138.917648,54.481777 
	C139.240570,51.525494 139.300583,48.462135 138.898041,45.525776 
	C138.445435,42.224396 137.408890,39.711178 132.759338,39.853176 
	C121.009033,40.212040 121.000000,39.916000 121.000008,51.750443 
	C121.000008,52.249065 121.000000,52.747684 121.000008,54.174149 
M146.800064,40.000443 
	C145.534302,41.086510 143.311996,42.066048 143.177032,43.278049 
	C142.719986,47.381691 142.708450,51.599606 143.154816,55.705570 
	C143.320175,57.226528 144.987579,59.473442 146.373230,59.832314 
	C157.832489,62.800159 161.051315,60.183647 161.000275,48.458141 
	C160.998108,47.959606 161.017776,47.460308 160.996994,46.962631 
	C160.743637,40.895714 159.810654,40.004314 153.721237,40.000210 
	C151.727066,39.998871 149.732910,40.000027 146.800064,40.000443 
M87.000000,19.462681 
	C86.822197,30.568382 88.984947,29.218475 96.677551,29.003136 
	C97.508652,28.979872 98.340973,29.001598 99.172729,28.999743 
	C105.333252,28.985989 105.333252,28.985773 104.569633,21.968584 
	C102.510658,22.090317 99.523972,21.388559 98.501976,22.497490 
	C95.796417,25.433167 95.507942,24.174231 94.589935,20.821232 
	C98.483597,20.821232 101.706268,20.821232 104.884933,20.821232 
	C105.331459,8.511614 105.440750,8.786264 94.179642,8.998385 
	C93.514473,9.010916 92.835342,9.086948 92.185699,8.985790 
	C88.606033,8.428386 87.586243,10.864038 87.070221,13.560384 
	C86.762939,15.165971 87.004944,16.876682 87.000000,19.462681 
M188.000656,55.666435 
	C188.092209,57.074223 188.183746,58.482014 188.258102,59.625298 
	C192.802414,59.625298 196.863510,59.625298 201.906250,59.625298 
	C197.784729,49.674164 198.402496,40.060490 201.636093,30.215441 
	C196.541656,30.215441 192.461838,30.215441 187.890381,30.215441 
	C188.080917,32.522202 187.765839,34.793205 188.512238,36.633766 
	C191.021317,42.820995 190.955383,48.786827 188.000656,55.666435 
M164.028854,21.058554 
	C164.144882,21.176947 164.278305,21.283533 164.369980,21.418472 
	C164.419174,21.490910 164.409683,21.698290 164.404694,21.699043 
	C163.005402,21.910295 161.604202,22.108765 160.291351,22.295012 
	C160.291351,24.621489 160.291351,26.684158 160.291351,28.998573 
	C164.867294,28.998573 169.167374,29.180311 173.434341,28.884377 
	C174.664658,28.799046 176.565491,27.523298 176.818909,26.470705 
	C177.347092,24.276833 177.647949,21.565990 176.776810,19.639864 
	C176.045090,18.021975 173.519775,17.215275 171.933502,16.147068 
	C173.391342,16.022131 175.121613,15.873850 176.662964,15.741756 
	C176.662964,13.273220 176.662964,11.223323 176.662964,9.001902 
	C172.363449,9.001902 168.364395,8.698742 164.452393,9.150023 
	C162.871399,9.332402 160.094711,11.444466 160.246933,12.194364 
	C160.854385,15.187299 157.189270,19.899818 164.028854,21.058554 
M52.002819,28.957699 
	C52.836720,26.456249 53.670620,23.954802 54.939781,20.147701 
	C50.529400,21.170013 47.907093,21.777855 45.337524,22.373472 
	C45.337524,20.201668 45.337524,17.676308 45.337524,15.937576 
	C48.291401,16.389954 51.031387,16.809576 53.883209,17.246323 
	C54.091717,9.296296 53.809418,9.005648 46.770107,9.000128 
	C45.608192,8.999217 44.403183,9.201625 43.292023,8.964150 
	C39.096928,8.067581 37.549404,10.745461 37.150814,13.969789 
	C36.706219,17.566296 36.694176,21.301731 37.148575,24.893877 
	C37.451637,27.289644 38.793507,29.423155 42.133911,29.065718 
	C45.088009,28.749615 48.102413,28.997158 52.002819,28.957699 
M244.637894,43.124092 
	C243.034668,42.082794 241.445984,40.166893 239.825912,40.139973 
	C227.953995,39.942738 227.714325,38.538006 227.998077,51.263741 
	C228.012909,51.928875 227.998505,52.594624 228.000214,53.260082 
	C228.016586,59.584332 228.427216,59.987419 234.869202,59.999687 
	C236.033752,60.001904 237.198334,60.002918 238.362869,59.999512 
	C244.304962,59.982128 245.592468,58.305359 244.240601,51.577877 
	C241.592148,52.182793 238.954605,52.785213 236.295074,53.392658 
	C236.295074,51.264839 236.295074,48.714951 236.295074,46.799725 
	C239.225235,47.314915 241.987717,47.800621 244.961838,48.323536 
	C244.961838,46.259468 244.961838,45.097679 244.637894,43.124092 
M166.000000,48.350685 
	C165.295837,52.082119 164.591675,55.813553 163.847137,59.758926 
	C167.882477,59.758926 171.300858,59.758926 174.441147,59.758926 
	C173.949646,52.727875 173.414658,45.938622 173.028000,39.140934 
	C172.860840,36.201962 173.000000,33.245560 173.000000,30.254692 
	C169.741913,30.254692 166.996918,30.254692 164.384918,30.254692 
	C164.938751,36.134621 165.469376,41.768330 166.000000,48.350685 
M106.008224,44.350666 
	C106.981628,49.396393 107.955032,54.442120 108.987373,59.793362 
	C111.150215,59.793362 113.878494,59.793362 116.635521,59.793362 
	C116.095207,51.104225 115.568802,42.638760 115.050110,34.297428 
	C112.305206,34.297428 110.234154,34.297428 108.639526,34.297428 
	C107.677101,37.642269 106.839043,40.554852 106.008224,44.350666 
M118.000000,18.330559 
	C118.000000,15.247677 118.000000,12.164794 118.000000,9.196416 
	C114.316963,9.196416 111.357559,9.196416 109.000610,9.196416 
	C109.000610,15.784304 109.000610,22.178106 109.000610,28.787174 
	C112.107010,28.787174 115.859459,28.787174 120.435524,28.787174 
	C119.557991,25.355387 118.779015,22.309013 118.000000,18.330559 
M181.930084,62.489399 
	C183.240173,59.457012 184.550278,56.424625 185.903091,53.293346 
	C180.533356,52.921993 177.828033,56.346985 177.342072,64.240555 
	C178.808655,63.815022 180.097458,63.441082 181.930084,62.489399 
z"/>
<path fill="#00AFEF" opacity="1.000000" stroke="none" 
	d="
M1.000000,118.468658 
	C26.981382,118.000000 52.963455,118.083427 78.943047,117.867928 
	C81.475739,117.846909 84.881035,116.673676 86.322945,114.821877 
	C88.901115,111.510796 85.051025,109.590851 83.082329,107.653519 
	C69.941475,94.722061 56.735207,81.856651 43.490654,69.031265 
	C39.577110,65.241577 35.381435,61.742767 31.477844,57.943405 
	C26.911869,53.499355 25.552162,47.053555 27.782618,41.699684 
	C30.436571,35.329269 34.138992,33.000908 41.628727,33.000408 
	C60.282024,32.999168 78.935326,33.000008 97.588623,33.000008 
	C99.216599,33.000008 100.844574,33.000008 102.733871,33.000008 
	C102.733871,38.662914 102.733871,43.934288 102.733871,49.783127 
	C91.167770,49.783127 79.452209,49.783127 67.736656,49.783127 
	C67.734711,50.149059 67.732765,50.514988 67.730827,50.880920 
	C79.317261,50.880920 90.903694,50.880920 102.739838,50.880920 
	C102.739838,53.663170 102.739838,55.936302 102.739838,58.838982 
	C95.033897,58.838982 87.179901,58.838982 79.325905,58.838982 
	C79.124641,59.223099 78.923370,59.607216 78.722099,59.991337 
	C80.468086,61.815872 82.154259,63.702404 83.970337,65.454277 
	C92.086197,73.283218 100.339439,80.972565 108.345062,88.911987 
	C114.149155,94.668076 120.512894,100.137138 125.099373,106.787743 
	C135.623352,122.048012 133.680634,142.286530 122.855164,156.635590 
	C113.710968,168.756149 101.528206,174.188904 86.376122,174.065643 
	C58.231537,173.836670 30.083761,174.000000 1.468657,174.000000 
	C1.000000,171.629440 1.000000,169.258896 1.468657,166.444168 
	C31.725218,166.000000 61.513123,166.000000 91.301025,166.000000 
	C91.300163,165.666672 91.299301,165.333328 91.298439,165.000000 
	C61.198959,165.000000 31.099480,165.000000 1.000000,165.000000 
	C1.000000,149.645767 1.000000,134.291550 1.000000,118.468658 
M121.747948,119.293282 
	C121.314949,118.690002 120.881950,118.086731 120.448952,117.483452 
	C124.162132,128.804977 121.948677,139.450211 116.745247,149.791199 
	C123.856247,140.761505 124.068634,130.609146 121.747948,119.293282 
M115.719078,150.109207 
	C115.613319,150.556549 115.507568,151.003891 115.401802,151.451233 
	C115.715202,151.119919 116.028610,150.788605 115.719078,150.109207 
z"/>
<path fill="#373435" opacity="1.000000" stroke="none" 
	d="
M33.541931,1.000000 
	C33.333336,6.472370 32.219028,11.939834 32.158974,17.418852 
	C32.119606,21.010979 33.604778,24.619814 34.508484,28.675915 
	C30.817118,28.675915 27.741478,28.675915 24.261602,28.675915 
	C24.261602,24.782288 24.261602,20.718176 24.261602,16.654062 
	C23.969982,16.555923 23.678362,16.457785 23.386742,16.359646 
	C21.574526,19.427935 19.762310,22.496222 17.387794,26.516542 
	C15.259467,22.909378 13.412181,19.778536 11.161388,15.963814 
	C11.161388,20.540739 11.161388,24.511696 11.161388,29.000000 
	C7.785200,29.000000 4.852475,29.000000 1.459875,29.000000 
	C1.000000,26.958334 1.000000,24.916666 1.438050,22.422703 
	C2.065870,16.714220 2.260128,11.458138 2.385292,6.200414 
	C2.386620,6.144634 1.481803,6.067282 1.000000,6.000000 
	C1.000000,4.383431 1.000000,2.766863 1.000000,1.000000 
	C4.343886,1.000000 7.688987,1.000000 11.610304,1.347971 
	C13.948853,5.034740 15.711185,8.373539 17.550028,11.857288 
	C19.422358,8.127283 21.211180,4.563642 23.000000,1.000000 
	C26.361288,1.000000 29.722574,1.000000 33.541931,1.000000 
z"/>
<path fill="#373435" opacity="1.000000" stroke="none" 
	d="
M83.545898,1.000000 
	C83.333344,6.471588 82.219078,11.938264 82.158974,17.416506 
	C82.119560,21.007917 83.604622,24.616056 84.508728,28.673553 
	C80.482574,28.673553 77.071976,28.673553 73.386208,28.673553 
	C71.567337,25.116266 69.623116,21.313828 67.038177,16.258305 
	C67.038177,21.257582 67.038177,24.925226 67.038177,28.783978 
	C63.532543,28.783978 60.466503,28.783978 56.436161,28.783978 
	C59.103436,19.653023 60.410175,10.725569 57.000004,1.434347 
	C60.361286,1.000000 63.722576,1.000000 67.635300,1.348120 
	C69.948448,4.998733 71.710167,8.301226 74.000000,12.593730 
	C74.000000,7.926591 74.000000,4.463295 74.000000,1.000000 
	C77.030594,1.000000 80.061188,1.000000 83.545898,1.000000 
z"/>
<path fill="#373435" opacity="1.000000" stroke="none" 
	d="
M130.550018,1.000000 
	C131.350281,10.109902 131.700562,19.219805 132.063507,28.659275 
	C129.377686,28.659275 125.858200,28.659275 121.509720,28.659275 
	C124.672073,19.626585 125.095734,10.725944 122.000000,1.434351 
	C124.700012,1.000000 127.400024,1.000000 130.550018,1.000000 
z"/>
<path fill="#FFFFFF" opacity="1.000000" stroke="none" 
	d="
M1.000000,165.250000 
	C31.099480,165.000000 61.198959,165.000000 91.298439,165.000000 
	C91.299301,165.333328 91.300163,165.666672 91.301025,166.000000 
	C61.513123,166.000000 31.725218,166.000000 1.468657,166.000000 
	C1.000000,166.000000 1.000000,165.500000 1.000000,165.250000 
z"/>
<path fill="#FFFFFF" opacity="1.000000" stroke="none" 
	d="
M22.541931,1.000000 
	C21.211180,4.563642 19.422358,8.127283 17.550028,11.857288 
	C15.711185,8.373539 13.948853,5.034740 12.093260,1.347971 
	C15.361287,1.000000 18.722574,1.000000 22.541931,1.000000 
z"/>
<path fill="#373435" opacity="1.000000" stroke="none" 
	d="
M115.583336,1.000000 
	C115.916214,2.899978 116.135429,4.901583 115.554146,6.634701 
	C115.391090,7.120866 111.931717,7.336842 111.620857,6.773585 
	C110.843803,5.365613 111.005409,3.439602 110.895180,1.360731 
	C112.388893,1.000000 113.777779,1.000000 115.583336,1.000000 
z"/>
<path fill="#FFFFFF" opacity="1.000000" stroke="none" 
	d="
M73.571533,1.000000 
	C74.000000,4.463295 74.000000,7.926591 74.000000,12.593730 
	C71.710167,8.301226 69.948448,4.998733 68.093369,1.348120 
	C69.714355,1.000000 71.428719,1.000000 73.571533,1.000000 
z"/>
<path fill="#373435" opacity="1.000000" stroke="none" 
	d="
M254.000000,59.562500 
	C251.162399,60.198860 248.166794,59.820171 248.285370,56.406178 
	C248.326721,55.215248 251.477646,54.132305 253.604233,53.000023 
	C254.000000,55.041668 254.000000,57.083332 254.000000,59.562500 
z"/>
<path fill="#FFFFFF" opacity="1.000000" stroke="none" 
	d="
M1.000000,6.466862 
	C1.481803,6.067282 2.386620,6.144634 2.385292,6.200414 
	C2.260128,11.458138 2.065870,16.714220 1.438050,21.985203 
	C1.000000,16.977907 1.000000,11.955815 1.000000,6.466862 
z"/>
<path fill="#373435" opacity="1.000000" stroke="none" 
	d="
M145.000000,15.013940 
	C145.000000,17.971746 145.000000,20.456646 145.000000,22.941544 
	C145.553497,22.931496 146.106995,22.921448 146.660492,22.911400 
	C146.660492,18.451834 146.660492,13.992268 146.660492,9.270126 
	C149.694534,9.270126 152.094360,9.270126 154.317123,9.270126 
	C155.149719,15.749069 155.971893,22.146917 156.852188,28.997019 
	C151.207581,28.997019 145.730026,29.125263 140.268692,28.884880 
	C139.222183,28.838816 137.503220,27.460066 137.348709,26.495287 
	C136.450745,20.888149 135.927490,15.221001 135.245087,9.292048 
	C138.231186,9.292048 141.317535,9.292048 145.000000,9.292048 
	C145.000000,11.002843 145.000000,12.771937 145.000000,15.013940 
z"/>
<path fill="#373435" opacity="1.000000" stroke="none" 
	d="
M205.386261,59.548092 
	C204.798798,52.972118 204.520187,46.751392 204.218018,40.004864 
	C209.535477,40.004864 214.824844,39.895966 220.101868,40.102592 
	C221.082336,40.140987 222.735703,41.350330 222.850327,42.187439 
	C223.638855,47.945847 224.100891,53.748962 224.690598,59.768681 
	C221.612503,59.768681 218.535324,59.768681 214.854813,59.768681 
	C214.854813,55.125854 214.854813,50.617592 214.854813,46.109329 
	C214.371078,46.080833 213.887360,46.052334 213.403625,46.023838 
	C213.403625,50.567104 213.403625,55.110371 213.403625,59.903343 
	C210.270248,59.903343 207.982681,59.903343 205.386261,59.548092 
z"/>
<path fill="#373435" opacity="1.000000" stroke="none" 
	d="
M121.000000,53.710228 
	C121.000000,52.747684 121.000008,52.249065 121.000008,51.750443 
	C121.000000,39.916000 121.009033,40.212040 132.759338,39.853176 
	C137.408890,39.711178 138.445435,42.224396 138.898041,45.525776 
	C139.300583,48.462135 139.240570,51.525494 138.917648,54.481777 
	C138.505844,58.251667 136.883194,60.934601 132.251724,60.054523 
	C130.487152,59.719223 128.597122,59.887135 126.778931,60.022579 
	C122.496872,60.341564 120.618286,58.404312 121.000000,53.710228 
z"/>
<path fill="#373435" opacity="1.000000" stroke="none" 
	d="
M147.269409,40.000240 
	C149.732910,40.000027 151.727066,39.998871 153.721237,40.000210 
	C159.810654,40.004314 160.743637,40.895714 160.996994,46.962631 
	C161.017776,47.460308 160.998108,47.959606 161.000275,48.458141 
	C161.051315,60.183647 157.832489,62.800159 146.373230,59.832314 
	C144.987579,59.473442 143.320175,57.226528 143.154816,55.705570 
	C142.708450,51.599606 142.719986,47.381691 143.177032,43.278049 
	C143.311996,42.066048 145.534302,41.086510 147.269409,40.000240 
z"/>
<path fill="#373435" opacity="1.000000" stroke="none" 
	d="
M87.000000,19.001408 
	C87.004944,16.876682 86.762939,15.165971 87.070221,13.560384 
	C87.586243,10.864038 88.606033,8.428386 92.185699,8.985790 
	C92.835342,9.086948 93.514473,9.010916 94.179642,8.998385 
	C105.440750,8.786264 105.331459,8.511614 104.884933,20.821232 
	C101.706268,20.821232 98.483597,20.821232 94.589935,20.821232 
	C95.507942,24.174231 95.796417,25.433167 98.501976,22.497490 
	C99.523972,21.388559 102.510658,22.090317 104.569633,21.968584 
	C105.333252,28.985773 105.333252,28.985989 99.172729,28.999743 
	C98.340973,29.001598 97.508652,28.979872 96.677551,29.003136 
	C88.984947,29.218475 86.822197,30.568382 87.000000,19.001408 
z"/>
<path fill="#373435" opacity="1.000000" stroke="none" 
	d="
M188.003708,55.207321 
	C190.955383,48.786827 191.021317,42.820995 188.512238,36.633766 
	C187.765839,34.793205 188.080917,32.522202 187.890381,30.215441 
	C192.461838,30.215441 196.541656,30.215441 201.636093,30.215441 
	C198.402496,40.060490 197.784729,49.674164 201.906250,59.625298 
	C196.863510,59.625298 192.802414,59.625298 188.258102,59.625298 
	C188.183746,58.482014 188.092209,57.074223 188.003708,55.207321 
z"/>
<path fill="#373435" opacity="1.000000" stroke="none" 
	d="
M163.621490,21.031115 
	C157.189270,19.899818 160.854385,15.187299 160.246933,12.194364 
	C160.094711,11.444466 162.871399,9.332402 164.452393,9.150023 
	C168.364395,8.698742 172.363449,9.001902 176.662964,9.001902 
	C176.662964,11.223323 176.662964,13.273220 176.662964,15.741756 
	C175.121613,15.873850 173.391342,16.022131 171.933502,16.147068 
	C173.519775,17.215275 176.045090,18.021975 176.776810,19.639864 
	C177.647949,21.565990 177.347092,24.276833 176.818909,26.470705 
	C176.565491,27.523298 174.664658,28.799046 173.434341,28.884377 
	C169.167374,29.180311 164.867294,28.998573 160.291351,28.998573 
	C160.291351,26.684158 160.291351,24.621489 160.291351,22.295012 
	C161.604202,22.108765 163.005402,21.910295 164.404694,21.699043 
	C164.409683,21.698290 164.419174,21.490910 164.369980,21.418472 
	C164.278305,21.283533 164.144882,21.176947 163.621490,21.031115 
z"/>
<path fill="#373435" opacity="1.000000" stroke="none" 
	d="
M51.546509,28.976774 
	C48.102413,28.997158 45.088009,28.749615 42.133911,29.065718 
	C38.793507,29.423155 37.451637,27.289644 37.148575,24.893877 
	C36.694176,21.301731 36.706219,17.566296 37.150814,13.969789 
	C37.549404,10.745461 39.096928,8.067581 43.292023,8.964150 
	C44.403183,9.201625 45.608192,8.999217 46.770107,9.000128 
	C53.809418,9.005648 54.091717,9.296296 53.883209,17.246323 
	C51.031387,16.809576 48.291401,16.389954 45.337524,15.937576 
	C45.337524,17.676308 45.337524,20.201668 45.337524,22.373472 
	C47.907093,21.777855 50.529400,21.170013 54.939781,20.147701 
	C53.670620,23.954802 52.836720,26.456249 51.546509,28.976774 
z"/>
<path fill="#373435" opacity="1.000000" stroke="none" 
	d="
M244.799866,43.529991 
	C244.961838,45.097679 244.961838,46.259468 244.961838,48.323536 
	C241.987717,47.800621 239.225235,47.314915 236.295074,46.799725 
	C236.295074,48.714951 236.295074,51.264839 236.295074,53.392658 
	C238.954605,52.785213 241.592148,52.182793 244.240601,51.577877 
	C245.592468,58.305359 244.304962,59.982128 238.362869,59.999512 
	C237.198334,60.002918 236.033752,60.001904 234.869202,59.999687 
	C228.427216,59.987419 228.016586,59.584332 228.000214,53.260082 
	C227.998505,52.594624 228.012909,51.928875 227.998077,51.263741 
	C227.714325,38.538006 227.953995,39.942738 239.825912,40.139973 
	C241.445984,40.166893 243.034668,42.082794 244.799866,43.529991 
z"/>
<path fill="#373435" opacity="1.000000" stroke="none" 
	d="
M166.000000,47.876362 
	C165.469376,41.768330 164.938751,36.134621 164.384918,30.254692 
	C166.996918,30.254692 169.741913,30.254692 173.000000,30.254692 
	C173.000000,33.245560 172.860840,36.201962 173.028000,39.140934 
	C173.414658,45.938622 173.949646,52.727875 174.441147,59.758926 
	C171.300858,59.758926 167.882477,59.758926 163.847137,59.758926 
	C164.591675,55.813553 165.295837,52.082119 166.000000,47.876362 
z"/>
<path fill="#373435" opacity="1.000000" stroke="none" 
	d="
M106.004608,43.909050 
	C106.839043,40.554852 107.677101,37.642269 108.639526,34.297428 
	C110.234154,34.297428 112.305206,34.297428 115.050110,34.297428 
	C115.568802,42.638760 116.095207,51.104225 116.635521,59.793362 
	C113.878494,59.793362 111.150215,59.793362 108.987373,59.793362 
	C107.955032,54.442120 106.981628,49.396393 106.004608,43.909050 
z"/>
<path fill="#373435" opacity="1.000000" stroke="none" 
	d="
M118.000015,18.796600 
	C118.779015,22.309013 119.557991,25.355387 120.435524,28.787174 
	C115.859459,28.787174 112.107010,28.787174 109.000610,28.787174 
	C109.000610,22.178106 109.000610,15.784304 109.000610,9.196416 
	C111.357559,9.196416 114.316963,9.196416 118.000000,9.196416 
	C118.000000,12.164794 118.000000,15.247677 118.000015,18.796600 
z"/>
<path fill="#373435" opacity="1.000000" stroke="none" 
	d="
M181.658173,62.778267 
	C180.097458,63.441082 178.808655,63.815022 177.342072,64.240555 
	C177.828033,56.346985 180.533356,52.921993 185.903091,53.293346 
	C184.550278,56.424625 183.240173,59.457012 181.658173,62.778267 
z"/>
<path fill="#FFFFFF" opacity="1.000000" stroke="none" 
	d="
M121.856491,119.682594 
	C124.068634,130.609146 123.856247,140.761505 116.745247,149.791199 
	C121.948677,139.450211 124.162132,128.804977 120.448952,117.483452 
	C120.881950,118.086731 121.314949,118.690002 121.856491,119.682594 
z"/>
<path fill="#FFFFFF" opacity="1.000000" stroke="none" 
	d="
M116.030548,150.283264 
	C116.028610,150.788605 115.715202,151.119919 115.401810,151.451233 
	C115.507568,151.003891 115.613319,150.556549 116.030548,150.283264 
z"/>
</svg>